<?xml version="1.0" encoding="utf-8"?>
<!-- Generator: Adobe Illustrator 24.0.2, SVG Export Plug-In . SVG Version: 6.00 Build 0)  -->
<svg version="1.1" xmlns="http://www.w3.org/2000/svg" xmlns:xlink="http://www.w3.org/1999/xlink" x="0px" y="0px"
	 viewBox="0 0 24 24" style="enable-background:new 0 0 24 24;" xml:space="preserve">
<style type="text/css">
	.st0{fill:none;}
	.st1{display:none;}
	.st2{display:inline;}
	.st3{fill:none;stroke:#CECECE;stroke-width:0.1;stroke-miterlimit:10;}
	.st4{fill:#c71f16;}
</style>
<g id="bounding_box">
	<rect x="0" y="0" class="st0" width="24" height="24"/>
</g>
<g id="design">
	<path class="st4" d="M12,13.5c-0.41,0-0.75-0.34-0.75-0.75v-5C11.25,7.34,11.59,7,12,7s0.75,0.34,0.75,0.75v5
		C12.75,13.16,12.41,13.5,12,13.5z"/>
	<path class="st4" d="M12,17c-0.27,0-0.52-0.1-0.71-0.29c-0.09-0.1-0.16-0.21-0.21-0.33S11,16.13,11,16s0.03-0.26,0.08-0.38
		c0.05-0.13,0.12-0.23,0.21-0.33c0.37-0.37,1.05-0.37,1.42,0c0.09,0.1,0.16,0.2,0.21,0.33C12.97,15.74,13,15.87,13,16
		s-0.03,0.26-0.08,0.38s-0.12,0.23-0.21,0.33C12.52,16.9,12.27,17,12,17z"/>
	<path class="st4" d="M11.99,22c-2.58,0-5.02-0.97-6.89-2.76c-1.93-1.84-3.03-4.33-3.1-7S2.92,7.04,4.76,5.1
		c1.84-1.93,4.33-3.03,7-3.1c2.66-0.06,5.21,0.91,7.14,2.76c1.93,1.84,3.03,4.33,3.1,7l0,0c0.06,2.67-0.91,5.21-2.76,7.14
		c-1.84,1.93-4.33,3.03-7,3.1C12.16,22,12.08,22,11.99,22z M12.01,3.5c-0.07,0-0.14,0-0.21,0C9.52,3.56,7.41,4.49,5.85,6.14
		c-1.57,1.64-2.4,3.8-2.34,6.07c0.05,2.27,0.99,4.38,2.63,5.95c1.64,1.57,3.79,2.4,6.07,2.34c2.27-0.05,4.38-0.99,5.95-2.63
		s2.4-3.8,2.34-6.07l0,0c-0.05-2.27-0.99-4.38-2.63-5.95C16.27,4.33,14.2,3.5,12.01,3.5z"/>
</g>
</svg>
