<svg width="70" height="80" viewBox="0 0 70 80" fill="none" xmlns="http://www.w3.org/2000/svg">
<path d="M0 0H70V75C70 77.7614 67.7614 80 65 80H5C2.23858 80 0 77.7614 0 75V0Z" fill="#3963FF"/>
<path d="M25.3622 22.4366C25.3919 22.4403 25.4216 22.4428 25.4488 22.4304C25.5046 22.3635 25.5801 22.314 25.5529 22.2112C25.7782 21.9524 25.9417 21.5203 25.8055 21.1438C25.725 20.968 25.5615 20.9829 25.3981 20.9977C25.2817 21.0076 25.1653 21.0175 25.0823 20.9581L25.0786 20.8467L22.1105 19.6629C21.9731 19.0289 21.666 18.4866 21.4023 17.9281C21.3168 16.6379 20.2012 15.7724 20.2173 14.4982C20.3795 14.2567 20.5702 14.2877 20.7633 14.3187C20.8723 14.336 20.9825 14.3533 21.0878 14.3211C21.2314 14.2072 21.3106 14.123 21.245 13.9063C21.3082 13.8642 21.3205 13.7354 21.4246 13.7218C21.4481 13.4271 21.3862 13.0977 21.7465 13.016C21.6289 12.7783 21.4444 12.5727 21.4122 12.2756C21.6301 11.8385 21.3305 11.2689 21.3515 10.8157C20.9057 10.6473 20.4117 10.2993 19.9114 10.3142C19.6935 10.3204 19.4756 10.3971 19.2589 10.5891C18.8676 11.0299 18.6187 11.5054 18.6323 11.9709C18.636 12.8798 18.7747 12.9083 18.8577 13.5212C18.7252 13.6475 18.7252 13.9843 18.4627 13.8543C18.1259 14.2865 17.7346 14.7743 17.3644 15.2226C16.2116 16.2751 14.5895 17.2644 14.3963 18.9905C14.4991 20.2944 14.5276 21.5599 14.4842 22.8823C14.53 22.8885 14.5808 22.8836 14.6303 22.8786C14.722 22.87 14.8111 22.8625 14.8718 22.9145C14.8532 22.9393 14.8458 22.9591 14.8322 22.9802H14.8235C14.826 23.0532 14.8284 23.1176 14.8173 23.1907L14.9164 23.1882C15.1058 23.5956 14.9387 24.18 15.0513 24.6183C15.1578 24.7645 15.1194 25.0802 15.3448 25.0901C15.3423 25.0332 15.3299 24.9651 15.3807 24.923L15.5813 25.2907C15.7064 25.3551 15.715 25.1892 15.7732 25.131C15.8636 25.1768 15.8042 25.3105 15.824 25.396C15.8723 25.4554 15.9218 25.5309 16.0221 25.4987L16.0778 24.3781C16.2116 24.7063 16.2078 25.1174 16.2574 25.4913L16.3589 25.4888C16.5298 25.3303 16.4307 25.0579 16.4543 24.8388C16.3874 24.18 16.4765 23.6129 16.1918 23.047C16.2797 22.9727 16.3119 22.8885 16.2945 22.7635C16.3589 22.7474 16.3701 22.6458 16.4468 22.6632C16.6326 21.4868 16.5521 20.1409 16.5868 18.9806L16.9842 18.6513C17.3569 20.3192 17.0598 22.0527 16.77 23.7132C16.874 24.0104 16.9768 24.3769 16.8592 24.7273L16.8468 25.365L16.8975 25.3625L16.9075 25.0753C16.9273 25.7018 16.7155 26.4807 17.17 26.7877C17.1613 28.4086 17.1526 30.0196 16.926 31.5302C15.9614 33.8693 14.4768 36.2182 14.6724 38.8532L15.819 38.8457L15.9404 38.5783C16.9508 38.7294 18.0999 39.0005 18.958 38.2972C18.8428 37.7375 18.0429 37.9951 17.6492 37.7313C17.4597 37.6248 17.222 37.5184 17.092 37.3339L16.9062 37.3165C17.1724 36.1216 17.7767 35.0691 18.3054 34.0005C19.8235 32.0849 19.7356 29.5069 20.0093 27.0787C20.0625 26.976 20.1603 26.9524 20.2594 26.9611C20.33 26.9512 20.4166 26.9512 20.5095 26.95C20.8166 26.9475 21.1769 26.9425 21.0927 26.6169C22.5514 26.7209 23.7525 27.4663 25.1975 27.6607C25.169 27.813 25.0737 27.9368 25.0328 28.083C25.0105 28.4643 24.9969 28.8321 24.9796 29.1974L24.9746 29.4784C24.9288 31.3445 24.9375 32.4205 25.299 34.2085L26.3206 34.1763L26.4258 33.9138C27.3929 33.8433 28.5271 33.9596 29.4261 33.3269C29.254 32.7895 28.4788 33.1337 28.0504 32.9009C27.8126 32.7821 27.4721 32.6657 27.3743 32.3858C27.2777 30.474 27.404 28.4854 27.7483 26.6132C26.3045 24.6803 24.27 24.2704 22.4548 23.3207C22.5241 23.1027 22.4597 23.1585 22.5761 22.9641C22.0969 22.9628 21.8047 22.5753 21.3911 22.7102C21.3032 22.2384 21.25 21.6664 21.3565 21.1711C21.4902 21.2788 21.645 21.3259 21.7416 21.4769C22.6777 21.8162 23.7128 21.9103 24.6205 22.3548L24.9622 22.1233" fill="white"/>
<path d="M10.5491 58.747H21.6821V38.8274H10.5491V58.747ZM19.2304 54.2348C19.0397 54.6224 18.6707 54.9456 18.1234 55.2069C17.5761 55.4681 16.9396 55.5994 16.214 55.5994C15.4178 55.5994 14.7368 55.4495 14.1746 55.1474C13.6112 54.8453 13.2422 54.4614 13.0677 53.9946C12.8931 53.5278 12.8064 52.8653 12.8064 52.0085V51.2593H15.5714V52.6524C15.5714 53.082 15.6098 53.3582 15.6878 53.4807C15.7658 53.6033 15.9045 53.664 16.1026 53.664C16.3007 53.664 16.4481 53.586 16.5434 53.4312C16.64 53.2752 16.6895 53.0449 16.6895 52.7378C16.6895 52.0642 16.5979 51.6234 16.4134 51.4154C16.2252 51.2086 15.7608 50.8619 15.0204 50.3752C14.2811 49.8849 13.7896 49.5295 13.5493 49.3079C13.3079 49.0862 13.1098 48.7804 12.9513 48.3891C12.7928 47.9978 12.7148 47.4976 12.7148 46.8896C12.7148 46.0129 12.8274 45.3715 13.0503 44.9666C13.2732 44.5605 13.636 44.2447 14.1363 44.0156C14.6353 43.7866 15.2395 43.6726 15.9466 43.6726C16.7192 43.6726 17.378 43.7977 17.9228 44.0478C18.4664 44.2979 18.828 44.6125 19.0038 44.9914C19.1809 45.3715 19.2688 46.0166 19.2688 46.9255V47.3775H16.5038V46.528C16.5038 46.133 16.4691 45.8804 16.3973 45.7715C16.3267 45.6625 16.2091 45.6092 16.0432 45.6092C15.8648 45.6092 15.7286 45.6823 15.637 45.8284C15.5454 45.9745 15.4996 46.1962 15.4996 46.4933C15.4996 46.8747 15.5516 47.162 15.6543 47.3564C15.7534 47.5496 16.0345 47.7836 16.4963 48.056C17.8213 48.8435 18.6558 49.4887 19.0001 49.9926C19.3443 50.4978 19.5164 51.3101 19.5164 52.432C19.5177 53.2467 19.4223 53.8485 19.2304 54.2348Z" fill="white"/>
<path d="M23.1098 58.747H34.2428V34.3264H23.1098V58.747ZM32.0623 46.0563H30.2223V55.5907H27.1217V46.0563H25.2879V43.6702H32.0623V46.0563Z" fill="white"/>
<path d="M35.6693 58.7456H46.8023V29.6829H35.6693V58.7456V58.7456ZM44.0089 55.5968H38.8887V43.6676H43.8021V46.0549H41.7317V48.3172H43.6696V50.5869H41.7317V53.2095H44.0076V55.5968H44.0089Z" fill="white"/>
<path d="M53.5557 45.7058V48.7432C53.6436 48.7482 53.7204 48.7506 53.7847 48.7506C54.0695 48.7506 54.2677 48.6801 54.3779 48.5401C54.4881 48.4002 54.5425 48.108 54.5425 47.6672V46.6877C54.5425 46.2791 54.4794 46.0141 54.3506 45.8903C54.2243 45.7677 53.9593 45.7058 53.5557 45.7058Z" fill="white"/>
<path d="M48.2288 58.7457H59.3618V25.1819H48.2288V58.7457ZM57.1379 48.0423C57.1379 48.8038 57.0599 49.3586 56.9026 49.7077C56.7442 50.0569 56.4556 50.3244 56.0371 50.5114C55.6173 50.6983 55.0676 50.7912 54.389 50.7912H53.5557V55.5968H50.7213V43.6639H53.578C54.4224 43.6639 55.0725 43.7295 55.527 43.8632C55.9814 43.9957 56.3231 44.1864 56.5522 44.4378C56.7813 44.6891 56.9361 44.9925 57.0166 45.3479C57.0983 45.7045 57.1379 46.2555 57.1379 47.0022V48.0423Z" fill="white"/>
<path d="M12.7259 61.2036H10.5491V69.5122H12.7259V61.2036Z" fill="white"/>
<path d="M17.9847 61.2036V62.8666H16.692V69.5135H14.5152V62.8666H13.2274V61.2036H17.9847Z" fill="white"/>
<path d="M24.1116 61.2046L25.3572 69.5132H23.1321L23.0145 68.0199H22.2369L22.1056 69.5132H19.8545L20.9652 61.2046H24.1116ZM22.9575 66.5464C22.8473 65.6053 22.7371 64.4414 22.6257 63.057C22.404 64.6481 22.2641 65.8109 22.2072 66.5464H22.9575Z" fill="white"/>
<path d="M30.8092 64.8213H28.6324V63.3775C28.6324 62.9577 28.6088 62.6952 28.563 62.5912C28.5172 62.4872 28.4144 62.4352 28.2547 62.4352C28.0764 62.4352 27.9612 62.4983 27.9129 62.6246C27.8646 62.7522 27.8411 63.0246 27.8411 63.4456V67.3052C27.8411 67.7089 27.8646 67.9726 27.9129 68.0964C27.9612 68.2203 28.0702 68.2809 28.2386 68.2809C28.4008 68.2809 28.5073 68.2203 28.5568 68.0952C28.6064 67.9726 28.6324 67.6816 28.6324 67.2259V66.1809H30.8092V66.5041C30.8092 67.3646 30.7485 67.9751 30.6259 68.3342C30.5033 68.6945 30.2322 69.009 29.8136 69.2802C29.3951 69.5514 28.8788 69.6863 28.2658 69.6863C27.6281 69.6863 27.1031 69.5712 26.6883 69.3433C26.2747 69.1143 26.0011 68.796 25.8661 68.3911C25.7324 67.9862 25.6655 67.3758 25.6655 66.561V64.1341C25.6655 63.536 25.6866 63.0865 25.7274 62.7869C25.7695 62.4872 25.8921 62.1987 26.0977 61.9213C26.302 61.6452 26.588 61.426 26.9508 61.2675C27.3149 61.109 27.7322 61.0298 28.2052 61.0298C28.8466 61.0298 29.3753 61.1524 29.7926 61.3988C30.2099 61.6452 30.4835 61.9523 30.6148 62.3188C30.746 62.6866 30.8117 63.2574 30.8117 64.0338V64.8213H30.8092Z" fill="white"/>
<path d="M35.3523 61.2046L36.598 69.5132H34.3728L34.2564 68.0199H33.4776L33.3463 69.5132H31.0952L32.2059 61.2046H35.3523ZM34.1995 66.5464C34.0893 65.6053 33.9778 64.4414 33.8676 63.057C33.6448 64.6481 33.5061 65.8109 33.4504 66.5464H34.1995Z" fill="white"/>
<path d="M36.9682 61.2036H38.5977C39.649 61.2036 40.3598 61.2519 40.7312 61.3472C41.1015 61.4438 41.3838 61.6011 41.5757 61.819C41.7689 62.0382 41.889 62.2821 41.9373 62.5508C41.9856 62.8195 42.0091 63.347 42.0091 64.1345V67.0444C42.0091 67.7898 41.9744 68.2888 41.9026 68.5402C41.832 68.7916 41.7094 68.9884 41.5336 69.1308C41.3578 69.272 41.1399 69.3723 40.8823 69.428C40.6223 69.485 40.2335 69.5135 39.7122 69.5135H36.967V61.2036H36.9682ZM39.145 62.6251V68.0907C39.4583 68.0907 39.6515 68.0276 39.7245 67.9025C39.7964 67.7774 39.8335 67.4382 39.8335 66.8834V63.6553C39.8335 63.2789 39.8211 63.0387 39.7976 62.9322C39.7741 62.8257 39.7184 62.7489 39.6317 62.6982C39.545 62.6499 39.3828 62.6251 39.145 62.6251Z" fill="white"/>
<path d="M42.8214 61.2036H46.4506V62.8666H44.9969V64.4429H46.3578V66.0228H44.9969V67.8505H46.5955V69.5135H42.8214V61.2036Z" fill="white"/>
<path d="M53.9383 61.2034V69.512H52.0351L52.0326 63.9028L51.2748 69.512H49.9251L49.1265 64.0315L49.124 69.512H47.2208V61.2034H50.0378C50.1208 61.7024 50.2062 62.2918 50.2966 62.9691L50.6049 65.0828L51.1052 61.2021H53.9383V61.2034Z" fill="white"/>
<path d="M59.451 61.2036L57.8635 66.5045V69.5122H55.8464V66.5058L54.316 61.2048H56.3157C56.629 62.8269 56.8048 63.9178 56.8445 64.4788C56.9658 63.5922 57.1676 62.5013 57.45 61.2048H59.451V61.2036Z" fill="white"/>
</svg>
